<?xml version="1.0" encoding="utf-8" standalone="no"?>
<!DOCTYPE svg PUBLIC "-//W3C//DTD SVG 1.1//EN"
  "http://www.w3.org/Graphics/SVG/1.1/DTD/svg11.dtd">
<svg xmlns:xlink="http://www.w3.org/1999/xlink" width="720pt" height="432pt" viewBox="0 0 720 432" xmlns="http://www.w3.org/2000/svg" version="1.1">
 <metadata>
  <rdf:RDF xmlns:dc="http://purl.org/dc/elements/1.1/" xmlns:cc="http://creativecommons.org/ns#" xmlns:rdf="http://www.w3.org/1999/02/22-rdf-syntax-ns#">
   <cc:Work>
    <dc:type rdf:resource="http://purl.org/dc/dcmitype/StillImage"/>
    <dc:date>2026-01-18T15:29:08.945914</dc:date>
    <dc:format>image/svg+xml</dc:format>
    <dc:creator>
     <cc:Agent>
      <dc:title>Matplotlib v3.10.8, https://matplotlib.org/</dc:title>
     </cc:Agent>
    </dc:creator>
   </cc:Work>
  </rdf:RDF>
 </metadata>
 <defs>
  <style type="text/css">*{stroke-linejoin: round; stroke-linecap: butt}</style>
 </defs>
 <g id="figure_1">
  <g id="patch_1">
   <path d="M 0 432 
L 720 432 
L 720 0 
L 0 0 
z
" style="fill: #ffffff"/>
  </g>
  <g id="axes_1">
   <g id="patch_2">
    <path d="M 90 384.48 
L 648 384.48 
L 648 51.84 
L 90 51.84 
z
" style="fill: #ffffff"/>
   </g>
   <g id="matplotlib.axis_1">
    <g id="xtick_1">
     <g id="line2d_1">
      <defs>
       <path id="mf62f74f06e" d="M 0 0 
L 0 3.5 
" style="stroke: #000000; stroke-width: 0.8"/>
      </defs>
      <g>
       <use xlink:href="#mf62f74f06e" x="115.363636" y="384.48" style="stroke: #000000; stroke-width: 0.8"/>
      </g>
     </g>
     <g id="text_1">
      <!-- 0 -->
      <g transform="translate(112.182386 399.078438) scale(0.1 -0.1)">
       <defs>
        <path id="DejaVuSans-30" d="M 2034 4250 
Q 1547 4250 1301 3770 
Q 1056 3291 1056 2328 
Q 1056 1369 1301 889 
Q 1547 409 2034 409 
Q 2525 409 2770 889 
Q 3016 1369 3016 2328 
Q 3016 3291 2770 3770 
Q 2525 4250 2034 4250 
z
M 2034 4750 
Q 2819 4750 3233 4129 
Q 3647 3509 3647 2328 
Q 3647 1150 3233 529 
Q 2819 -91 2034 -91 
Q 1250 -91 836 529 
Q 422 1150 422 2328 
Q 422 3509 836 4129 
Q 1250 4750 2034 4750 
z
" transform="scale(0.015625)"/>
       </defs>
       <use xlink:href="#DejaVuSans-30"/>
      </g>
     </g>
    </g>
    <g id="xtick_2">
     <g id="line2d_2">
      <g>
       <use xlink:href="#mf62f74f06e" x="181.243211" y="384.48" style="stroke: #000000; stroke-width: 0.8"/>
      </g>
     </g>
     <g id="text_2">
      <!-- 500 -->
      <g transform="translate(171.699461 399.078438) scale(0.1 -0.1)">
       <defs>
        <path id="DejaVuSans-35" d="M 691 4666 
L 3169 4666 
L 3169 4134 
L 1269 4134 
L 1269 2991 
Q 1406 3038 1543 3061 
Q 1681 3084 1819 3084 
Q 2600 3084 3056 2656 
Q 3513 2228 3513 1497 
Q 3513 744 3044 326 
Q 2575 -91 1722 -91 
Q 1428 -91 1123 -41 
Q 819 9 494 109 
L 494 744 
Q 775 591 1075 516 
Q 1375 441 1709 441 
Q 2250 441 2565 725 
Q 2881 1009 2881 1497 
Q 2881 1984 2565 2268 
Q 2250 2553 1709 2553 
Q 1456 2553 1204 2497 
Q 953 2441 691 2322 
L 691 4666 
z
" transform="scale(0.015625)"/>
       </defs>
       <use xlink:href="#DejaVuSans-35"/>
       <use xlink:href="#DejaVuSans-30" transform="translate(63.623047 0)"/>
       <use xlink:href="#DejaVuSans-30" transform="translate(127.246094 0)"/>
      </g>
     </g>
    </g>
    <g id="xtick_3">
     <g id="line2d_3">
      <g>
       <use xlink:href="#mf62f74f06e" x="247.122786" y="384.48" style="stroke: #000000; stroke-width: 0.8"/>
      </g>
     </g>
     <g id="text_3">
      <!-- 1000 -->
      <g transform="translate(234.397786 399.078438) scale(0.1 -0.1)">
       <defs>
        <path id="DejaVuSans-31" d="M 794 531 
L 1825 531 
L 1825 4091 
L 703 3866 
L 703 4441 
L 1819 4666 
L 2450 4666 
L 2450 531 
L 3481 531 
L 3481 0 
L 794 0 
L 794 531 
z
" transform="scale(0.015625)"/>
       </defs>
       <use xlink:href="#DejaVuSans-31"/>
       <use xlink:href="#DejaVuSans-30" transform="translate(63.623047 0)"/>
       <use xlink:href="#DejaVuSans-30" transform="translate(127.246094 0)"/>
       <use xlink:href="#DejaVuSans-30" transform="translate(190.869141 0)"/>
      </g>
     </g>
    </g>
    <g id="xtick_4">
     <g id="line2d_4">
      <g>
       <use xlink:href="#mf62f74f06e" x="313.002361" y="384.48" style="stroke: #000000; stroke-width: 0.8"/>
      </g>
     </g>
     <g id="text_4">
      <!-- 1500 -->
      <g transform="translate(300.277361 399.078438) scale(0.1 -0.1)">
       <use xlink:href="#DejaVuSans-31"/>
       <use xlink:href="#DejaVuSans-35" transform="translate(63.623047 0)"/>
       <use xlink:href="#DejaVuSans-30" transform="translate(127.246094 0)"/>
       <use xlink:href="#DejaVuSans-30" transform="translate(190.869141 0)"/>
      </g>
     </g>
    </g>
    <g id="xtick_5">
     <g id="line2d_5">
      <g>
       <use xlink:href="#mf62f74f06e" x="378.881936" y="384.48" style="stroke: #000000; stroke-width: 0.8"/>
      </g>
     </g>
     <g id="text_5">
      <!-- 2000 -->
      <g transform="translate(366.156936 399.078438) scale(0.1 -0.1)">
       <defs>
        <path id="DejaVuSans-32" d="M 1228 531 
L 3431 531 
L 3431 0 
L 469 0 
L 469 531 
Q 828 903 1448 1529 
Q 2069 2156 2228 2338 
Q 2531 2678 2651 2914 
Q 2772 3150 2772 3378 
Q 2772 3750 2511 3984 
Q 2250 4219 1831 4219 
Q 1534 4219 1204 4116 
Q 875 4013 500 3803 
L 500 4441 
Q 881 4594 1212 4672 
Q 1544 4750 1819 4750 
Q 2544 4750 2975 4387 
Q 3406 4025 3406 3419 
Q 3406 3131 3298 2873 
Q 3191 2616 2906 2266 
Q 2828 2175 2409 1742 
Q 1991 1309 1228 531 
z
" transform="scale(0.015625)"/>
       </defs>
       <use xlink:href="#DejaVuSans-32"/>
       <use xlink:href="#DejaVuSans-30" transform="translate(63.623047 0)"/>
       <use xlink:href="#DejaVuSans-30" transform="translate(127.246094 0)"/>
       <use xlink:href="#DejaVuSans-30" transform="translate(190.869141 0)"/>
      </g>
     </g>
    </g>
    <g id="xtick_6">
     <g id="line2d_6">
      <g>
       <use xlink:href="#mf62f74f06e" x="444.761511" y="384.48" style="stroke: #000000; stroke-width: 0.8"/>
      </g>
     </g>
     <g id="text_6">
      <!-- 2500 -->
      <g transform="translate(432.036511 399.078438) scale(0.1 -0.1)">
       <use xlink:href="#DejaVuSans-32"/>
       <use xlink:href="#DejaVuSans-35" transform="translate(63.623047 0)"/>
       <use xlink:href="#DejaVuSans-30" transform="translate(127.246094 0)"/>
       <use xlink:href="#DejaVuSans-30" transform="translate(190.869141 0)"/>
      </g>
     </g>
    </g>
    <g id="xtick_7">
     <g id="line2d_7">
      <g>
       <use xlink:href="#mf62f74f06e" x="510.641086" y="384.48" style="stroke: #000000; stroke-width: 0.8"/>
      </g>
     </g>
     <g id="text_7">
      <!-- 3000 -->
      <g transform="translate(497.916086 399.078438) scale(0.1 -0.1)">
       <defs>
        <path id="DejaVuSans-33" d="M 2597 2516 
Q 3050 2419 3304 2112 
Q 3559 1806 3559 1356 
Q 3559 666 3084 287 
Q 2609 -91 1734 -91 
Q 1441 -91 1130 -33 
Q 819 25 488 141 
L 488 750 
Q 750 597 1062 519 
Q 1375 441 1716 441 
Q 2309 441 2620 675 
Q 2931 909 2931 1356 
Q 2931 1769 2642 2001 
Q 2353 2234 1838 2234 
L 1294 2234 
L 1294 2753 
L 1863 2753 
Q 2328 2753 2575 2939 
Q 2822 3125 2822 3475 
Q 2822 3834 2567 4026 
Q 2313 4219 1838 4219 
Q 1578 4219 1281 4162 
Q 984 4106 628 3988 
L 628 4550 
Q 988 4650 1302 4700 
Q 1616 4750 1894 4750 
Q 2613 4750 3031 4423 
Q 3450 4097 3450 3541 
Q 3450 3153 3228 2886 
Q 3006 2619 2597 2516 
z
" transform="scale(0.015625)"/>
       </defs>
       <use xlink:href="#DejaVuSans-33"/>
       <use xlink:href="#DejaVuSans-30" transform="translate(63.623047 0)"/>
       <use xlink:href="#DejaVuSans-30" transform="translate(127.246094 0)"/>
       <use xlink:href="#DejaVuSans-30" transform="translate(190.869141 0)"/>
      </g>
     </g>
    </g>
    <g id="xtick_8">
     <g id="line2d_8">
      <g>
       <use xlink:href="#mf62f74f06e" x="576.520661" y="384.48" style="stroke: #000000; stroke-width: 0.8"/>
      </g>
     </g>
     <g id="text_8">
      <!-- 3500 -->
      <g transform="translate(563.795661 399.078438) scale(0.1 -0.1)">
       <use xlink:href="#DejaVuSans-33"/>
       <use xlink:href="#DejaVuSans-35" transform="translate(63.623047 0)"/>
       <use xlink:href="#DejaVuSans-30" transform="translate(127.246094 0)"/>
       <use xlink:href="#DejaVuSans-30" transform="translate(190.869141 0)"/>
      </g>
     </g>
    </g>
    <g id="xtick_9">
     <g id="line2d_9">
      <g>
       <use xlink:href="#mf62f74f06e" x="642.400236" y="384.48" style="stroke: #000000; stroke-width: 0.8"/>
      </g>
     </g>
     <g id="text_9">
      <!-- 4000 -->
      <g transform="translate(629.675236 399.078438) scale(0.1 -0.1)">
       <defs>
        <path id="DejaVuSans-34" d="M 2419 4116 
L 825 1625 
L 2419 1625 
L 2419 4116 
z
M 2253 4666 
L 3047 4666 
L 3047 1625 
L 3713 1625 
L 3713 1100 
L 3047 1100 
L 3047 0 
L 2419 0 
L 2419 1100 
L 313 1100 
L 313 1709 
L 2253 4666 
z
" transform="scale(0.015625)"/>
       </defs>
       <use xlink:href="#DejaVuSans-34"/>
       <use xlink:href="#DejaVuSans-30" transform="translate(63.623047 0)"/>
       <use xlink:href="#DejaVuSans-30" transform="translate(127.246094 0)"/>
       <use xlink:href="#DejaVuSans-30" transform="translate(190.869141 0)"/>
      </g>
     </g>
    </g>
    <g id="text_10">
     <!-- Scan Index -->
     <g transform="translate(341.488281 412.756563) scale(0.1 -0.1)">
      <defs>
       <path id="DejaVuSans-53" d="M 3425 4513 
L 3425 3897 
Q 3066 4069 2747 4153 
Q 2428 4238 2131 4238 
Q 1616 4238 1336 4038 
Q 1056 3838 1056 3469 
Q 1056 3159 1242 3001 
Q 1428 2844 1947 2747 
L 2328 2669 
Q 3034 2534 3370 2195 
Q 3706 1856 3706 1288 
Q 3706 609 3251 259 
Q 2797 -91 1919 -91 
Q 1588 -91 1214 -16 
Q 841 59 441 206 
L 441 856 
Q 825 641 1194 531 
Q 1563 422 1919 422 
Q 2459 422 2753 634 
Q 3047 847 3047 1241 
Q 3047 1584 2836 1778 
Q 2625 1972 2144 2069 
L 1759 2144 
Q 1053 2284 737 2584 
Q 422 2884 422 3419 
Q 422 4038 858 4394 
Q 1294 4750 2059 4750 
Q 2388 4750 2728 4690 
Q 3069 4631 3425 4513 
z
" transform="scale(0.015625)"/>
       <path id="DejaVuSans-63" d="M 3122 3366 
L 3122 2828 
Q 2878 2963 2633 3030 
Q 2388 3097 2138 3097 
Q 1578 3097 1268 2742 
Q 959 2388 959 1747 
Q 959 1106 1268 751 
Q 1578 397 2138 397 
Q 2388 397 2633 464 
Q 2878 531 3122 666 
L 3122 134 
Q 2881 22 2623 -34 
Q 2366 -91 2075 -91 
Q 1284 -91 818 406 
Q 353 903 353 1747 
Q 353 2603 823 3093 
Q 1294 3584 2113 3584 
Q 2378 3584 2631 3529 
Q 2884 3475 3122 3366 
z
" transform="scale(0.015625)"/>
       <path id="DejaVuSans-61" d="M 2194 1759 
Q 1497 1759 1228 1600 
Q 959 1441 959 1056 
Q 959 750 1161 570 
Q 1363 391 1709 391 
Q 2188 391 2477 730 
Q 2766 1069 2766 1631 
L 2766 1759 
L 2194 1759 
z
M 3341 1997 
L 3341 0 
L 2766 0 
L 2766 531 
Q 2569 213 2275 61 
Q 1981 -91 1556 -91 
Q 1019 -91 701 211 
Q 384 513 384 1019 
Q 384 1609 779 1909 
Q 1175 2209 1959 2209 
L 2766 2209 
L 2766 2266 
Q 2766 2663 2505 2880 
Q 2244 3097 1772 3097 
Q 1472 3097 1187 3025 
Q 903 2953 641 2809 
L 641 3341 
Q 956 3463 1253 3523 
Q 1550 3584 1831 3584 
Q 2591 3584 2966 3190 
Q 3341 2797 3341 1997 
z
" transform="scale(0.015625)"/>
       <path id="DejaVuSans-6e" d="M 3513 2113 
L 3513 0 
L 2938 0 
L 2938 2094 
Q 2938 2591 2744 2837 
Q 2550 3084 2163 3084 
Q 1697 3084 1428 2787 
Q 1159 2491 1159 1978 
L 1159 0 
L 581 0 
L 581 3500 
L 1159 3500 
L 1159 2956 
Q 1366 3272 1645 3428 
Q 1925 3584 2291 3584 
Q 2894 3584 3203 3211 
Q 3513 2838 3513 2113 
z
" transform="scale(0.015625)"/>
       <path id="DejaVuSans-20" transform="scale(0.015625)"/>
       <path id="DejaVuSans-49" d="M 628 4666 
L 1259 4666 
L 1259 0 
L 628 0 
L 628 4666 
z
" transform="scale(0.015625)"/>
       <path id="DejaVuSans-64" d="M 2906 2969 
L 2906 4863 
L 3481 4863 
L 3481 0 
L 2906 0 
L 2906 525 
Q 2725 213 2448 61 
Q 2172 -91 1784 -91 
Q 1150 -91 751 415 
Q 353 922 353 1747 
Q 353 2572 751 3078 
Q 1150 3584 1784 3584 
Q 2172 3584 2448 3432 
Q 2725 3281 2906 2969 
z
M 947 1747 
Q 947 1113 1208 752 
Q 1469 391 1925 391 
Q 2381 391 2643 752 
Q 2906 1113 2906 1747 
Q 2906 2381 2643 2742 
Q 2381 3103 1925 3103 
Q 1469 3103 1208 2742 
Q 947 2381 947 1747 
z
" transform="scale(0.015625)"/>
       <path id="DejaVuSans-65" d="M 3597 1894 
L 3597 1613 
L 953 1613 
Q 991 1019 1311 708 
Q 1631 397 2203 397 
Q 2534 397 2845 478 
Q 3156 559 3463 722 
L 3463 178 
Q 3153 47 2828 -22 
Q 2503 -91 2169 -91 
Q 1331 -91 842 396 
Q 353 884 353 1716 
Q 353 2575 817 3079 
Q 1281 3584 2069 3584 
Q 2775 3584 3186 3129 
Q 3597 2675 3597 1894 
z
M 3022 2063 
Q 3016 2534 2758 2815 
Q 2500 3097 2075 3097 
Q 1594 3097 1305 2825 
Q 1016 2553 972 2059 
L 3022 2063 
z
" transform="scale(0.015625)"/>
       <path id="DejaVuSans-78" d="M 3513 3500 
L 2247 1797 
L 3578 0 
L 2900 0 
L 1881 1375 
L 863 0 
L 184 0 
L 1544 1831 
L 300 3500 
L 978 3500 
L 1906 2253 
L 2834 3500 
L 3513 3500 
z
" transform="scale(0.015625)"/>
      </defs>
      <use xlink:href="#DejaVuSans-53"/>
      <use xlink:href="#DejaVuSans-63" transform="translate(63.476562 0)"/>
      <use xlink:href="#DejaVuSans-61" transform="translate(118.457031 0)"/>
      <use xlink:href="#DejaVuSans-6e" transform="translate(179.736328 0)"/>
      <use xlink:href="#DejaVuSans-20" transform="translate(243.115234 0)"/>
      <use xlink:href="#DejaVuSans-49" transform="translate(274.902344 0)"/>
      <use xlink:href="#DejaVuSans-6e" transform="translate(304.394531 0)"/>
      <use xlink:href="#DejaVuSans-64" transform="translate(367.773438 0)"/>
      <use xlink:href="#DejaVuSans-65" transform="translate(431.25 0)"/>
      <use xlink:href="#DejaVuSans-78" transform="translate(491.023438 0)"/>
     </g>
    </g>
   </g>
   <g id="matplotlib.axis_2">
    <g id="ytick_1">
     <g id="line2d_10">
      <defs>
       <path id="m38bf3814f0" d="M 0 0 
L -3.5 0 
" style="stroke: #000000; stroke-width: 0.8"/>
      </defs>
      <g>
       <use xlink:href="#m38bf3814f0" x="90" y="369.36" style="stroke: #000000; stroke-width: 0.8"/>
      </g>
     </g>
     <g id="text_11">
      <!-- 0.0 -->
      <g transform="translate(67.096875 373.159219) scale(0.1 -0.1)">
       <defs>
        <path id="DejaVuSans-2e" d="M 684 794 
L 1344 794 
L 1344 0 
L 684 0 
L 684 794 
z
" transform="scale(0.015625)"/>
       </defs>
       <use xlink:href="#DejaVuSans-30"/>
       <use xlink:href="#DejaVuSans-2e" transform="translate(63.623047 0)"/>
       <use xlink:href="#DejaVuSans-30" transform="translate(95.410156 0)"/>
      </g>
     </g>
    </g>
    <g id="ytick_2">
     <g id="line2d_11">
      <g>
       <use xlink:href="#m38bf3814f0" x="90" y="314.028211" style="stroke: #000000; stroke-width: 0.8"/>
      </g>
     </g>
     <g id="text_12">
      <!-- 0.5 -->
      <g transform="translate(67.096875 317.82743) scale(0.1 -0.1)">
       <use xlink:href="#DejaVuSans-30"/>
       <use xlink:href="#DejaVuSans-2e" transform="translate(63.623047 0)"/>
       <use xlink:href="#DejaVuSans-35" transform="translate(95.410156 0)"/>
      </g>
     </g>
    </g>
    <g id="ytick_3">
     <g id="line2d_12">
      <g>
       <use xlink:href="#m38bf3814f0" x="90" y="258.696423" style="stroke: #000000; stroke-width: 0.8"/>
      </g>
     </g>
     <g id="text_13">
      <!-- 1.0 -->
      <g transform="translate(67.096875 262.495641) scale(0.1 -0.1)">
       <use xlink:href="#DejaVuSans-31"/>
       <use xlink:href="#DejaVuSans-2e" transform="translate(63.623047 0)"/>
       <use xlink:href="#DejaVuSans-30" transform="translate(95.410156 0)"/>
      </g>
     </g>
    </g>
    <g id="ytick_4">
     <g id="line2d_13">
      <g>
       <use xlink:href="#m38bf3814f0" x="90" y="203.364634" style="stroke: #000000; stroke-width: 0.8"/>
      </g>
     </g>
     <g id="text_14">
      <!-- 1.5 -->
      <g transform="translate(67.096875 207.163853) scale(0.1 -0.1)">
       <use xlink:href="#DejaVuSans-31"/>
       <use xlink:href="#DejaVuSans-2e" transform="translate(63.623047 0)"/>
       <use xlink:href="#DejaVuSans-35" transform="translate(95.410156 0)"/>
      </g>
     </g>
    </g>
    <g id="ytick_5">
     <g id="line2d_14">
      <g>
       <use xlink:href="#m38bf3814f0" x="90" y="148.032845" style="stroke: #000000; stroke-width: 0.8"/>
      </g>
     </g>
     <g id="text_15">
      <!-- 2.0 -->
      <g transform="translate(67.096875 151.832064) scale(0.1 -0.1)">
       <use xlink:href="#DejaVuSans-32"/>
       <use xlink:href="#DejaVuSans-2e" transform="translate(63.623047 0)"/>
       <use xlink:href="#DejaVuSans-30" transform="translate(95.410156 0)"/>
      </g>
     </g>
    </g>
    <g id="ytick_6">
     <g id="line2d_15">
      <g>
       <use xlink:href="#m38bf3814f0" x="90" y="92.701056" style="stroke: #000000; stroke-width: 0.8"/>
      </g>
     </g>
     <g id="text_16">
      <!-- 2.5 -->
      <g transform="translate(67.096875 96.500275) scale(0.1 -0.1)">
       <use xlink:href="#DejaVuSans-32"/>
       <use xlink:href="#DejaVuSans-2e" transform="translate(63.623047 0)"/>
       <use xlink:href="#DejaVuSans-35" transform="translate(95.410156 0)"/>
      </g>
     </g>
    </g>
    <g id="text_17">
     <!-- Intensity -->
     <g transform="translate(61.017187 239.9225) rotate(-90) scale(0.1 -0.1)">
      <defs>
       <path id="DejaVuSans-74" d="M 1172 4494 
L 1172 3500 
L 2356 3500 
L 2356 3053 
L 1172 3053 
L 1172 1153 
Q 1172 725 1289 603 
Q 1406 481 1766 481 
L 2356 481 
L 2356 0 
L 1766 0 
Q 1100 0 847 248 
Q 594 497 594 1153 
L 594 3053 
L 172 3053 
L 172 3500 
L 594 3500 
L 594 4494 
L 1172 4494 
z
" transform="scale(0.015625)"/>
       <path id="DejaVuSans-73" d="M 2834 3397 
L 2834 2853 
Q 2591 2978 2328 3040 
Q 2066 3103 1784 3103 
Q 1356 3103 1142 2972 
Q 928 2841 928 2578 
Q 928 2378 1081 2264 
Q 1234 2150 1697 2047 
L 1894 2003 
Q 2506 1872 2764 1633 
Q 3022 1394 3022 966 
Q 3022 478 2636 193 
Q 2250 -91 1575 -91 
Q 1294 -91 989 -36 
Q 684 19 347 128 
L 347 722 
Q 666 556 975 473 
Q 1284 391 1588 391 
Q 1994 391 2212 530 
Q 2431 669 2431 922 
Q 2431 1156 2273 1281 
Q 2116 1406 1581 1522 
L 1381 1569 
Q 847 1681 609 1914 
Q 372 2147 372 2553 
Q 372 3047 722 3315 
Q 1072 3584 1716 3584 
Q 2034 3584 2315 3537 
Q 2597 3491 2834 3397 
z
" transform="scale(0.015625)"/>
       <path id="DejaVuSans-69" d="M 603 3500 
L 1178 3500 
L 1178 0 
L 603 0 
L 603 3500 
z
M 603 4863 
L 1178 4863 
L 1178 4134 
L 603 4134 
L 603 4863 
z
" transform="scale(0.015625)"/>
       <path id="DejaVuSans-79" d="M 2059 -325 
Q 1816 -950 1584 -1140 
Q 1353 -1331 966 -1331 
L 506 -1331 
L 506 -850 
L 844 -850 
Q 1081 -850 1212 -737 
Q 1344 -625 1503 -206 
L 1606 56 
L 191 3500 
L 800 3500 
L 1894 763 
L 2988 3500 
L 3597 3500 
L 2059 -325 
z
" transform="scale(0.015625)"/>
      </defs>
      <use xlink:href="#DejaVuSans-49"/>
      <use xlink:href="#DejaVuSans-6e" transform="translate(29.492188 0)"/>
      <use xlink:href="#DejaVuSans-74" transform="translate(92.871094 0)"/>
      <use xlink:href="#DejaVuSans-65" transform="translate(132.080078 0)"/>
      <use xlink:href="#DejaVuSans-6e" transform="translate(193.603516 0)"/>
      <use xlink:href="#DejaVuSans-73" transform="translate(256.982422 0)"/>
      <use xlink:href="#DejaVuSans-69" transform="translate(309.082031 0)"/>
      <use xlink:href="#DejaVuSans-74" transform="translate(336.865234 0)"/>
      <use xlink:href="#DejaVuSans-79" transform="translate(376.074219 0)"/>
     </g>
    </g>
    <g id="text_18">
     <!-- 1e7 -->
     <g transform="translate(90 48.84) scale(0.1 -0.1)">
      <defs>
       <path id="DejaVuSans-37" d="M 525 4666 
L 3525 4666 
L 3525 4397 
L 1831 0 
L 1172 0 
L 2766 4134 
L 525 4134 
L 525 4666 
z
" transform="scale(0.015625)"/>
      </defs>
      <use xlink:href="#DejaVuSans-31"/>
      <use xlink:href="#DejaVuSans-65" transform="translate(63.623047 0)"/>
      <use xlink:href="#DejaVuSans-37" transform="translate(125.146484 0)"/>
     </g>
    </g>
   </g>
   <g id="line2d_16">
    <path d="M 115.363636 369.36 
L 123.927981 369.36 
L 124.05974 350.323552 
L 124.191499 369.36 
L 135.654545 369.36 
L 135.786305 362.424653 
L 135.918064 369.36 
L 141.18843 369.36 
L 141.320189 364.240487 
L 141.451948 369.36 
L 147.644628 369.36 
L 147.776387 357.244125 
L 147.908146 369.36 
L 153.57379 369.36 
L 153.705549 328.840022 
L 153.837308 369.36 
L 159.502952 369.36 
L 159.634711 173.931464 
L 159.76647 369.36 
L 162.928689 369.36 
L 163.060449 352.828942 
L 163.192208 369.36 
L 182.692562 369.36 
L 182.824321 289.158531 
L 182.95608 369.36 
L 184.932468 369.36 
L 185.064227 119.976618 
L 185.195986 369.36 
L 186.645336 369.36 
L 186.777096 193.31793 
L 186.908855 369.36 
L 199.294215 369.36 
L 199.425974 346.845849 
L 199.557733 369.36 
L 199.689492 369.36 
L 199.821251 306.915266 
L 199.953011 369.36 
L 209.966706 369.36 
L 210.098465 291.319647 
L 210.230224 369.36 
L 217.872255 369.36 
L 218.004014 220.091434 
L 218.135773 369.36 
L 218.399292 369.36 
L 218.531051 362.493236 
L 218.66281 369.36 
L 219.585124 369.36 
L 219.716883 320.016605 
L 219.848642 369.36 
L 220.902715 369.36 
L 221.034475 331.560465 
L 221.166234 369.36 
L 224.460213 369.36 
L 224.591972 329.652016 
L 224.723731 369.36 
L 224.987249 369.36 
L 225.119008 342.131725 
L 225.250767 369.36 
L 228.808264 369.36 
L 228.940024 306.154985 
L 229.071783 369.36 
L 229.994097 369.36 
L 230.125856 358.016397 
L 230.257615 369.36 
L 235.527981 369.36 
L 235.65974 284.878639 
L 235.791499 369.36 
L 235.923259 365.354786 
L 236.055018 369.36 
L 236.713813 369.36 
L 236.845573 333.236797 
L 236.977332 369.36 
L 238.031405 369.36 
L 238.163164 280.971662 
L 238.294923 369.36 
L 239.217237 369.36 
L 239.348996 303.864736 
L 239.480756 369.36 
L 240.139551 369.36 
L 240.271311 352.26064 
L 240.40307 369.36 
L 240.534829 363.78312 
L 240.666588 233.410946 
L 240.798347 369.36 
L 243.565289 369.36 
L 243.697048 331.460779 
L 243.828808 369.36 
L 244.224085 369.36 
L 244.355844 285.372143 
L 244.487603 369.36 
L 246.068713 369.36 
L 246.200472 301.267306 
L 246.332231 369.36 
L 246.59575 369.36 
L 246.727509 202.615552 
L 246.859268 369.36 
L 247.518064 369.36 
L 247.649823 300.043345 
L 247.781582 369.36 
L 248.17686 369.36 
L 248.308619 359.380857 
L 248.440378 369.36 
L 248.572137 369.36 
L 248.703896 359.562223 
L 248.835655 288.660744 
L 248.967414 369.36 
L 249.230933 369.36 
L 249.362692 340.480303 
L 249.494451 369.36 
L 249.62621 323.382891 
L 249.757969 369.36 
L 250.812043 369.36 
L 250.943802 366.927155 
L 251.075561 369.36 
L 251.339079 369.36 
L 251.470838 312.683416 
L 251.602597 369.36 
L 253.578985 369.36 
L 253.710744 366.843455 
L 253.842503 369.36 
L 255.028335 369.36 
L 255.160094 330.740647 
L 255.291854 369.36 
L 258.585832 369.36 
L 258.717591 352.747958 
L 258.849351 369.36 
L 261.221015 369.36 
L 261.352774 234.81188 
L 261.616293 369.36 
L 261.748052 92.466959 
L 261.879811 369.36 
L 262.01157 332.506716 
L 262.143329 74.222851 
L 262.275089 369.36 
L 263.987957 369.36 
L 264.119717 326.682093 
L 264.251476 369.36 
L 264.778512 369.36 
L 264.910272 357.066029 
L 265.042031 369.36 
L 271.893506 369.36 
L 272.025266 316.668257 
L 272.157025 369.36 
L 272.94758 369.36 
L 273.079339 294.088925 
L 273.211098 368.718273 
L 273.342857 369.36 
L 273.474616 217.542453 
L 273.606375 359.33575 
L 273.738135 333.745595 
L 273.869894 341.699827 
L 274.001653 316.144398 
L 274.133412 369.36 
L 275.187485 369.36 
L 275.319244 339.824433 
L 275.451004 369.36 
L 275.97804 369.36 
L 276.109799 359.700995 
L 276.241558 369.36 
L 277.295632 369.36 
L 277.427391 177.209209 
L 277.55915 369.36 
L 277.690909 296.24287 
L 277.822668 369.36 
L 281.248406 369.36 
L 281.380165 269.272275 
L 281.511924 369.36 
L 282.038961 369.36 
L 282.17072 306.273041 
L 282.302479 369.36 
L 283.093034 369.36 
L 283.356553 359.893755 
L 283.488312 369.36 
L 285.596458 369.36 
L 285.728217 169.387264 
L 285.859976 369.36 
L 286.123495 369.36 
L 286.255254 302.898997 
L 286.387013 369.36 
L 287.177568 369.36 
L 287.309327 362.199657 
L 287.441086 369.36 
L 288.495159 369.36 
L 288.626919 345.48876 
L 288.758678 369.36 
L 289.549233 369.36 
L 289.680992 359.720118 
L 289.812751 369.36 
L 292.316175 369.36 
L 292.447934 364.837003 
L 292.579693 369.36 
L 297.191263 369.36 
L 297.323022 316.41466 
L 297.454782 369.36 
L 297.7183 369.36 
L 297.850059 323.122024 
L 297.981818 369.36 
L 300.089965 369.36 
L 300.221724 297.467208 
L 300.353483 369.36 
L 302.198111 369.36 
L 302.32987 313.116078 
L 302.461629 369.36 
L 305.755608 369.36 
L 305.887367 273.733766 
L 306.019126 369.36 
L 306.809681 369.36 
L 306.94144 349.022026 
L 307.0732 363.316302 
L 307.204959 325.467882 
L 307.336718 369.36 
L 308.127273 369.36 
L 308.259032 253.330988 
L 308.390791 369.36 
L 308.52255 367.214504 
L 308.654309 369.36 
L 309.444864 369.36 
L 309.576623 341.684212 
L 309.708383 369.36 
L 311.68477 369.36 
L 311.816529 343.008844 
L 311.948288 369.36 
L 312.343566 369.36 
L 312.475325 361.538531 
L 312.738843 155.486413 
L 312.870602 369.36 
L 313.13412 369.36 
L 313.26588 316.226488 
L 313.397639 369.36 
L 315.110508 369.36 
L 315.242267 361.086348 
L 315.374026 369.36 
L 316.29634 369.36 
L 316.428099 292.188732 
L 316.559858 369.36 
L 320.380874 369.36 
L 320.512633 359.169163 
L 320.644392 369.36 
L 321.566706 369.36 
L 321.698465 357.67474 
L 321.961983 369.36 
L 322.093743 311.473897 
L 322.225502 369.36 
L 324.597166 369.36 
L 324.728926 300.700222 
L 324.860685 369.36 
L 324.992444 369.36 
L 325.124203 286.924499 
L 325.255962 369.36 
L 328.022904 369.36 
L 328.154664 316.587439 
L 328.286423 357.969946 
L 328.418182 328.980343 
L 328.549941 369.36 
L 330.526328 369.36 
L 330.658087 208.051967 
L 330.789847 369.36 
L 331.448642 369.36 
L 331.580401 327.536582 
L 331.712161 369.36 
L 333.820307 369.36 
L 333.952066 352.897509 
L 334.347344 369.36 
L 336.060213 369.36 
L 336.191972 232.695816 
L 336.323731 369.36 
L 337.246045 369.36 
L 337.377804 344.918212 
L 337.509563 369.36 
L 340.012987 369.36 
L 340.144746 322.813925 
L 340.276505 369.36 
L 344.492798 369.36 
L 344.624557 359.47159 
L 344.756316 369.36 
L 347.523259 369.36 
L 347.655018 230.405146 
L 347.786777 369.36 
L 348.972609 369.36 
L 349.104368 260.196069 
L 349.236128 369.36 
L 350.685478 369.36 
L 350.817237 358.532952 
L 350.948996 369.36 
L 352.00307 369.36 
L 352.134829 351.005184 
L 352.266588 369.36 
L 352.530106 369.36 
L 352.661865 351.280272 
L 352.793625 369.36 
L 353.188902 369.36 
L 353.320661 361.410792 
L 353.45242 369.36 
L 353.979457 369.36 
L 354.111216 367.753132 
L 354.242975 369.36 
L 355.428808 369.275685 
L 355.560567 329.364246 
L 355.692326 369.36 
L 355.824085 140.107607 
L 355.955844 369.36 
L 361.753247 369.36 
L 361.885006 282.417526 
L 362.016765 369.36 
L 365.442503 369.36 
L 365.574262 368.033061 
L 365.706021 369.36 
L 368.077686 369.36 
L 368.209445 349.965223 
L 368.341204 369.36 
L 368.736482 369.36 
L 368.868241 197.669399 
L 369.131759 366.857874 
L 369.263518 360.138293 
L 369.395277 369.36 
L 372.03046 369.36 
L 372.16222 156.318116 
L 372.293979 369.36 
L 372.425738 153.715929 
L 372.557497 369.36 
L 376.114994 369.36 
L 376.246753 316.997879 
L 376.378512 369.36 
L 377.432586 369.36 
L 377.564345 66.96 
L 377.827863 369.36 
L 377.959622 369.36 
L 378.091381 300.172999 
L 378.22314 369.36 
L 378.486659 369.36 
L 378.618418 317.164351 
L 378.750177 313.795043 
L 378.881936 369.36 
L 379.145455 369.36 
L 379.277214 286.604792 
L 379.408973 369.36 
L 385.733412 369.36 
L 385.865171 343.732828 
L 385.99693 369.36 
L 387.182763 369.36 
L 387.314522 343.189945 
L 387.446281 369.36 
L 388.500354 369.36 
L 388.632113 352.947618 
L 388.763872 351.031367 
L 388.895632 369.36 
L 390.344982 369.36 
L 390.476741 357.787578 
L 390.608501 369.36 
L 390.872019 369.36 
L 391.003778 319.703305 
L 391.135537 369.36 
L 391.662574 369.36 
L 391.794333 289.009511 
L 391.926092 369.36 
L 396.010626 369.36 
L 396.142385 132.44816 
L 396.274144 369.36 
L 398.51405 369.36 
L 398.777568 358.64366 
L 398.909327 369.36 
L 401.149233 369.36 
L 401.280992 324.163966 
L 401.412751 369.36 
L 404.047934 369.36 
L 404.179693 284.553277 
L 404.311452 369.36 
L 405.365525 369.36 
L 405.497285 252.709346 
L 405.629044 369.36 
L 406.551358 369.36 
L 406.683117 213.39684 
L 406.814876 369.36 
L 407.078394 369.36 
L 407.210153 271.553494 
L 407.341913 369.36 
L 408.000708 369.36 
L 408.132468 355.981935 
L 408.264227 357.656663 
L 408.395986 369.36 
L 409.186541 369.36 
L 409.3183 187.195424 
L 409.450059 369.36 
L 409.581818 362.845313 
L 409.713577 369.36 
L 409.845336 312.629612 
L 409.977096 369.36 
L 410.108855 340.400946 
L 410.240614 369.36 
L 410.767651 369.36 
L 410.89941 357.056363 
L 411.031169 369.36 
L 417.09209 369.36 
L 417.223849 290.399534 
L 417.355608 368.96534 
L 417.487367 369.36 
L 419.595514 369.36 
L 419.727273 349.910389 
L 419.859032 369.36 
L 419.990791 369.36 
L 420.12255 291.324859 
L 420.254309 369.36 
L 420.386068 369.36 
L 420.517828 245.43222 
L 420.649587 369.36 
L 421.440142 369.36 
L 421.571901 364.68904 
L 421.70366 369.36 
L 422.889492 369.36 
L 423.021251 350.498511 
L 423.153011 369.36 
L 423.680047 369.36 
L 423.943566 319.21872 
L 424.075325 369.36 
L 424.86588 369.36 
L 424.997639 255.444086 
L 425.129398 369.36 
L 425.392916 369.36 
L 425.524675 251.608797 
L 425.656434 369.36 
L 427.89634 369.36 
L 428.028099 335.489 
L 428.159858 369.36 
L 428.423377 369.36 
L 428.555136 266.100137 
L 428.686895 369.36 
L 433.430224 369.36 
L 433.561983 298.113594 
L 433.693743 369.36 
L 435.406612 369.36 
L 435.538371 290.292423 
L 435.67013 369.36 
L 437.25124 369.36 
L 437.382999 233.574817 
L 437.514758 369.36 
L 438.437072 369.36 
L 438.568831 348.837639 
L 438.70059 369.36 
L 439.886423 369.36 
L 440.018182 354.666157 
L 440.149941 369.36 
L 443.048642 369.36 
L 443.180401 228.435932 
L 443.312161 369.36 
L 443.44392 326.006857 
L 443.575679 369.36 
L 444.102715 369.36 
L 444.234475 350.46405 
L 444.366234 369.36 
L 445.288548 369.36 
L 445.420307 334.617922 
L 445.552066 369.36 
L 447.264935 369.36 
L 447.396694 339.362889 
L 447.528453 369.36 
L 448.05549 369.36 
L 448.187249 361.173214 
L 448.319008 369.36 
L 448.582527 369.36 
L 448.714286 352.247715 
L 448.846045 369.36 
L 450.163636 369.36 
L 450.295396 344.86714 
L 450.427155 369.36 
L 450.558914 312.337405 
L 450.690673 369.36 
L 450.822432 369.36 
L 450.954191 320.474896 
L 451.08595 369.36 
L 452.271783 369.36 
L 452.403542 367.682174 
L 452.535301 369.36 
L 454.643447 369.36 
L 454.775207 364.901221 
L 454.906966 369.36 
L 460.309091 369.36 
L 460.44085 312.549724 
L 460.704368 369.36 
L 464.261865 369.36 
L 464.393625 348.519791 
L 464.525384 369.36 
L 465.974734 369.36 
L 466.106494 357.785835 
L 466.238253 369.36 
L 467.819362 369.36 
L 467.951122 307.316155 
L 468.082881 369.36 
L 472.694451 369.36 
L 472.82621 353.460311 
L 472.957969 369.36 
L 473.089728 369.36 
L 473.221488 338.373866 
L 473.353247 369.36 
L 476.120189 369.36 
L 476.251948 286.706813 
L 476.383707 369.36 
L 477.174262 369.36 
L 477.306021 344.050753 
L 477.43778 369.36 
L 479.282409 369.36 
L 479.414168 332.74109 
L 479.545927 369.36 
L 480.336482 369.36 
L 480.468241 328.054875 
L 480.6 369.36 
L 483.103424 369.36 
L 483.235183 294.530905 
L 483.366942 369.36 
L 483.498701 369.36 
L 483.63046 157.332592 
L 483.76222 369.36 
L 485.21157 369.36 
L 485.343329 158.744814 
L 485.475089 369.36 
L 486.397403 369.36 
L 486.529162 342.206766 
L 486.660921 369.36 
L 486.79268 369.36 
L 486.924439 355.022875 
L 487.056198 369.36 
L 487.451476 369.36 
L 487.583235 357.434102 
L 487.714994 369.36 
L 490.745455 369.36 
L 490.877214 316.993774 
L 491.008973 369.36 
L 491.536009 369.36 
L 491.667769 287.859905 
L 491.799528 369.36 
L 494.039433 369.36 
L 494.171192 362.585054 
L 494.302952 369.36 
L 499.17804 369.36 
L 499.309799 335.334657 
L 499.441558 369.36 
L 499.573318 262.40176 
L 499.705077 369.36 
L 501.813223 369.36 
L 501.944982 341.250655 
L 502.076741 369.36 
L 502.735537 369.36 
L 502.867296 351.263229 
L 502.999055 369.36 
L 505.37072 369.36 
L 505.502479 356.78802 
L 505.634238 369.36 
L 506.424793 369.36 
L 506.556553 365.400867 
L 506.688312 369.36 
L 507.215348 369.36 
L 507.347107 235.43215 
L 507.478867 369.36 
L 509.718772 369.36 
L 509.850531 341.498231 
L 509.98229 369.36 
L 513.803306 369.36 
L 513.935065 350.355589 
L 514.066824 369.36 
L 514.462102 369.36 
L 514.593861 323.33317 
L 514.72562 369.36 
L 514.857379 340.452427 
L 514.989138 369.36 
L 515.647934 369.36 
L 515.779693 348.981601 
L 515.911452 369.36 
L 518.283117 369.36 
L 518.414876 271.573768 
L 518.546635 369.36 
L 519.33719 369.36 
L 519.468949 243.070371 
L 519.600708 369.36 
L 522.49941 369.36 
L 522.631169 209.250652 
L 522.762928 369.36 
L 523.421724 369.36 
L 523.553483 301.494609 
L 523.685242 369.36 
L 525.661629 369.36 
L 525.793388 359.542365 
L 525.925148 369.36 
L 528.428571 369.36 
L 528.560331 367.569187 
L 528.69209 369.36 
L 531.063754 369.36 
L 531.195514 336.958678 
L 531.327273 369.36 
L 534.094215 369.36 
L 534.225974 345.573771 
L 534.357733 369.36 
L 535.148288 369.36 
L 535.280047 363.285532 
L 535.411806 369.36 
L 538.046989 369.36 
L 538.178749 354.13039 
L 538.310508 369.36 
L 539.891617 369.36 
L 540.023377 319.422839 
L 540.155136 369.36 
L 540.682172 369.36 
L 540.813932 253.565395 
L 540.945691 369.36 
L 544.503188 369.36 
L 544.634947 354.619567 
L 544.766706 369.36 
L 545.557261 369.36 
L 545.68902 368.880605 
L 545.820779 369.36 
L 546.347816 369.36 
L 546.479575 345.985849 
L 546.611334 369.36 
L 547.401889 369.36 
L 547.533648 356.99599 
L 547.665407 369.36 
L 548.060685 369.36 
L 548.192444 110.781404 
L 548.324203 369.36 
L 549.246517 369.36 
L 549.378276 334.120113 
L 549.510035 369.36 
L 549.905313 369.36 
L 550.037072 353.832805 
L 550.168831 369.36 
L 553.331051 369.36 
L 553.46281 363.438281 
L 553.594569 369.36 
L 555.175679 369.36 
L 555.307438 358.485671 
L 555.439197 369.36 
L 555.570956 276.489554 
L 555.702715 369.36 
L 558.07438 369.36 
L 558.206139 276.839539 
L 558.337898 369.36 
L 559.65549 369.36 
L 559.787249 357.182392 
L 559.919008 369.36 
L 560.050767 369.36 
L 560.182527 334.837579 
L 560.314286 369.36 
L 560.841322 369.36 
L 560.973081 364.842503 
L 561.104841 369.36 
L 561.500118 369.36 
L 561.631877 335.166371 
L 561.763636 369.36 
L 563.081228 369.36 
L 563.212987 353.584619 
L 563.344746 369.36 
L 563.476505 318.736659 
L 563.608264 369.36 
L 563.740024 347.952684 
L 563.871783 369.36 
L 566.243447 369.36 
L 566.375207 218.790827 
L 566.506966 369.36 
L 568.088076 369.36 
L 568.219835 363.942996 
L 568.351594 369.36 
L 568.87863 369.36 
L 569.01039 348.59595 
L 569.142149 369.36 
L 571.382054 369.36 
L 571.513813 293.135525 
L 571.645573 369.36 
L 572.831405 369.36 
L 572.963164 364.410964 
L 573.094923 369.36 
L 573.358442 369.36 
L 573.490201 233.983254 
L 573.62196 369.36 
L 573.753719 369.36 
L 573.885478 347.407887 
L 574.017237 369.36 
L 575.730106 369.36 
L 575.861865 304.641793 
L 575.993625 369.36 
L 577.047698 369.36 
L 577.179457 361.166126 
L 577.311216 369.36 
L 579.81464 369.36 
L 579.946399 280.991105 
L 580.078158 369.36 
L 580.605195 369.36 
L 580.736954 368.298969 
L 580.868713 369.36 
L 581.132231 369.36 
L 581.263991 238.504591 
L 581.39575 369.36 
L 581.527509 369.36 
L 581.659268 307.431334 
L 581.791027 369.36 
L 583.108619 369.36 
L 583.240378 332.368884 
L 583.372137 369.36 
L 584.42621 369.36 
L 584.557969 155.259686 
L 584.689728 369.36 
L 585.743802 369.36 
L 585.875561 337.632763 
L 586.00732 369.36 
L 589.564817 369.36 
L 589.696576 115.501361 
L 589.828335 369.36 
L 589.960094 369.36 
L 590.091854 348.752771 
L 590.223613 369.36 
L 592.068241 369.36 
L 592.2 192.152798 
L 592.331759 369.36 
L 599.446753 369.36 
L 599.578512 345.974728 
L 599.710272 262.690315 
L 599.842031 369.36 
L 601.291381 369.36 
L 601.42314 268.385749 
L 601.5549 369.36 
L 607.088784 369.36 
L 607.220543 350.929291 
L 607.352302 369.36 
L 607.879339 369.36 
L 608.011098 364.54962 
L 608.142857 369.36 
L 608.274616 143.21203 
L 608.406375 369.36 
L 609.065171 369.36 
L 609.19693 357.126938 
L 609.328689 369.36 
L 610.77804 369.36 
L 610.909799 276.572143 
L 611.041558 369.36 
L 622.636364 369.36 
L 622.636364 369.36 
" clip-path="url(#p0b198a1613)" style="fill: none; stroke: #1f77b4; stroke-width: 1.5; stroke-linecap: square"/>
   </g>
   <g id="patch_3">
    <path d="M 90 384.48 
L 90 51.84 
" style="fill: none; stroke: #000000; stroke-width: 0.8; stroke-linejoin: miter; stroke-linecap: square"/>
   </g>
   <g id="patch_4">
    <path d="M 648 384.48 
L 648 51.84 
" style="fill: none; stroke: #000000; stroke-width: 0.8; stroke-linejoin: miter; stroke-linecap: square"/>
   </g>
   <g id="patch_5">
    <path d="M 90 384.48 
L 648 384.48 
" style="fill: none; stroke: #000000; stroke-width: 0.8; stroke-linejoin: miter; stroke-linecap: square"/>
   </g>
   <g id="patch_6">
    <path d="M 90 51.84 
L 648 51.84 
" style="fill: none; stroke: #000000; stroke-width: 0.8; stroke-linejoin: miter; stroke-linecap: square"/>
   </g>
  </g>
 </g>
 <defs>
  <clipPath id="p0b198a1613">
   <rect x="90" y="51.84" width="558" height="332.64"/>
  </clipPath>
 </defs>
</svg>
